/* XPM */
static char *_0c186a2f11c456fb160f4e9b192b3f4odIlmcmIikg1r0uT[] = {
/* columns rows colors chars-per-pixel */
"33 32 6 1 ",
"  c None",
". c black",
"X c #3A0911",
"o c #811426",
"O c #A11B31",
"+ c white",
/* pixels */
"                                 ",
"                                 ",
"                                 ",
"                                 ",
"            XXXXXXX              ",
"           XoOOOOOOX             ",
"          XoOOOXXXXOX            ",
"         XoOOOX....XOX           ",
"         XoOOX......XOX          ",
"        XooOOX......XOX          ",
"       XooooOX.+...+XOX          ",
"       XooXoOX.+...+XOX          ",
"        XXXoOX......XoX          ",
"          XooOX.....XoX          ",
"          XXoooX...XoX           ",
"         XoOXXooXXXoXX           ",
"        XooOOOOOOOOOoX           ",
"        XoOOOOOOOOOOOX           ",
"       XooOOOOOOOOOOOX           ",
"       XoOOOOOOOoOOOOX           ",
"      XooOOOOOOoXoOOoX           ",
"      XoooOOoOooXooOoX           ",
"       XoOOoOooXXoOooX           ",
"        XoooooX.XooooX           ",
"         XoXoX...XXoX            ",
"          X X..  .XX             ",
"             ..  ..              ",
"              .  .               ",
"             .   .               ",
"                                 ",
"                                 ",
"                                 "
};
