/* XPM */
static char *_a91f404de0c401f8843c8b43419ad9fdMWk7vhs8mv808TY[] = {
/* columns rows colors chars-per-pixel */
"32 32 14 1 ",
"  c #656C17",
". c #72751B",
"X c #787B21",
"o c #605C48",
"O c #64604B",
"+ c #7C7B6E",
"@ c #807F72",
"# c #7F8226",
"$ c #838279",
"% c #848279",
"& c #86847A",
"* c #87867C",
"= c #88867D",
"- c #8D8B83",
/* pixels */
"...  XX ........................",
".....X =@@@@@@....@@@@@-..@@@@..",
"......=@@@@@@@=..=@@@@-O..@@@@=.",
"...=@@@@@@@@@@=..=@@@@O...@@@@=.",
".=@@@@@@@@@@@@=..-----O..@@@@@=.",
".=@@@@@@@@@@@@=..OOOOO..@@@@@@=.",
".=@@@@@@@@@@@@=........@@@@@@@=.",
".=@@@@@@@@@@@@=...@@@@@@@@@@@@=.",
".=@@@@@@@@@@@@=..=@@@@@@@@@@@@=.",
".=@@@@@@@@@@@@=..=@@@@@@@@@@@@=.",
".=@@@@@@@@@@@@=..=@@@@@@@@@@@@=.",
".=@@@@@@@@@@@@=..=@@@@@@@@----O.",
".=@@@@@@@@@@@@=..=@@@@@@@-OOOO..",
"#=@@@@@@@@@@@@=..=@@@@@@=O......",
".O------------O..O-------.......",
"..OOOOOOOOOOOO....OOOOOOO.......",
"................................",
"....@@@@@@@@@@....++++++++++++..",
"...@@@@@@@@@@@&..%++++++++++++$.",
"..@@@@@@@@@@@@*..%++++++++++++%.",
".*@@@@@@@@@@@@*..%++++++++++++%.",
".*@@@@@@@@@@@@*..%++++++++++++%.",
".*@@@@@@@@@@@@*..%++++++++++++%.",
".=@@@@@@@@@@@@*..%++++++++=====.",
".=@@@@@@@@@@@@*..%+++++++=oooo##",
".=@@@@@@@@@@@@*..%++++++Xo..XX#.",
".O-----@@@@@@@*..%+++++=o##.XX .",
"..OOOOO*@@@@@@*..%+++==o.#XX  ..",
".......-@@@@@@*...===oo.. XX....",
".......#X@@@@@*...ooo..... .....",
"..#X..X# -----O.................",
".. XX.XX.OOOOO.................."
};
